<svg xmlns="http://www.w3.org/2000/svg" xml:space="preserve" x="0px" y="0px" enable-background="new 0 0 720 249.744" viewBox="0 0 720 249.744"><g fill-rule="evenodd" clip-rule="evenodd"><g fill="#00D2FF"><path d="M63.857 144.748c6.65-.108 9.067-1.527 11.15-6.972l1.666-4.577c1.526-4.465.198-5.773-6.072-5.881H44.253l-6.343 17.43h25.947zm-16.126 37.687c9.921 0 11.598-.764 14.422-6.86l2.22-6.101c2.04-5.881.087-7.408-9.785-7.516H31.644l-7.452 20.476h23.539zm31.898-72.223c15.641-.324 21.63 4.685 18.292 15.255l-4.881 13.396c-2.634 6.968-6.228 10.786-13.925 14.596l-.077.22c6.521 3.814 7.372 6.972 4.264 15.795l-5.077 13.94c-2.201 5.777-6.687 10.678-12.632 13.512-4.975 2.391-6.559 2.611-16.41 2.718H0l32.551-89.433h47.078zM133.66 110.104l-32.592 89.541H82.936l32.588-89.541zM154.627 131.349l-15.425 42.372c-2.871 8.171-2.447 9.479 3.824 9.587h14.53c4.845-.108 6.76-2.071 9.634-9.695l15.387-42.264h17.43l-17.686 48.577c-4.714 13.512-12.544 19.613-25.604 19.721H131.77c-13.042.328-16.669-5.661-11.55-19.173l17.882-49.124h16.525zM245.347 158.471l1.508-4.138c1.8-5.229.975-6.536-4.196-6.644h-13.016c-6.157.108-7.515 1.087-9.835 7.188l-1.308 3.594h26.847zm-32.2 14.707-1.622 4.465c-1.344 4.789-.062 5.665 7.653 5.665h35.963l-5.945 16.339h-38.969c-15.784.436-20.884-6.756-15.331-22.004l8.999-24.73c5.293-14.272 13.32-21.46 24.179-21.564h27.347c12.86.432 15.465 5.117 10.708 19.277l-8.205 22.551h-44.777z"/></g><g fill="#FFF"><path d="m299.003 140.488-39.499 59.16h9.651zM338.435 125.536l.022 27.257h-17.716l-11.174 17.212h28.904l.024 29.643h17.886l-.333-101.243z"/></g><path fill="#FFF" d="M386.931 131.349c-9.541.088-15.798 4.798-21.007 16.239l.159 48.467 13.441-36.93c3.429-9.695 4.85-11.114 11.974-11.438h8.616l5.948-16.339h-19.131zM469.252 147.688H442c-9.149.108-10.99 1.303-14.022 9.367l-5.438 14.924c-2.061 5.665-2.676 7.624-2.632 8.063.494 3.046.854 3.158 8.227 3.266h28.148l-5.945 16.339h-37.97c-12.699-.328-15.244-5.445-10.291-20.149l10.425-28.652c5.014-14.052 11.543-19.065 25.229-19.497h37.462l-5.941 16.339zM494.647 110.104h17.323l-7.691 21.136h26.847c13.522.544 15.573 6.209 8.946 23.855l-16.212 44.551h-17.33l14.708-40.409c3.584-10.13 3.197-11.549-3.872-11.661h-19.033l-18.956 52.07h-17.323l32.593-89.542zM558.228 139.754h17.632l-21.801 59.894h-17.632z"/><ellipse cx="570.134" cy="127.094" fill="#FFF" rx="9.724" ry="4.573"/><path fill="#FFF" d="m600.863 182.984 32.717-51.635h19.735l-46.698 68.298H583.78l3.722-68.298h18.533zM697 158.471l1.508-4.138c1.8-5.229.971-6.536-4.193-6.644h-13.023c-6.15.108-7.508 1.087-9.828 7.188l-1.312 3.594H697zm-32.2 14.707-1.626 4.465c-1.34 4.789-.058 5.665 7.657 5.665h35.963l-5.948 16.339h-38.969c-15.78.436-20.877-6.756-15.331-22.004l9.007-24.73c5.29-14.272 13.316-21.46 24.175-21.564h27.347c12.863.432 15.465 5.117 10.711 19.277l-8.209 22.551H664.8z"/></g><path fill="#FFF" fill-rule="evenodd" d="M362.738 43.647c-56.645-20.884-108.861-20.736-116.627.329-6.771 18.364 22.477 46.562 67.617 67.328l1.553-3.079c-40.711-19.153-66.942-44.78-60.733-61.361 7.173-19.157 54.928-18.983 106.664.388 51.736 19.372 87.861 50.606 80.688 69.763-.633 1.691-1.589 3.229-2.83 4.619h11.246a15.5 15.5 0 0 0 .925-2.032c7.765-21.065-31.858-55.072-88.503-75.955z" clip-rule="evenodd"/><defs><filter id="a" width="130.868" height="231.266" x="261.441" y="0" filterUnits="userSpaceOnUse"><feColorMatrix values="1 0 0 0 0 0 1 0 0 0 0 0 1 0 0 0 0 0 1 0"/></filter></defs><mask id="b" width="130.868" height="231.266" x="261.441" y="0" maskUnits="userSpaceOnUse"><g filter="url(#a)"><path fill="#FFF" fill-rule="evenodd" d="M257.365 2.403 392.309 0l4.075 228.862-134.944 2.403z" clip-rule="evenodd"/></g></mask><path fill="#00D2FF" fill-rule="evenodd" d="M392.309 0c-9.338 20.157-19.424 39.891-29.773 59.478-5.104 9.832-10.479 19.512-15.727 29.264l-16.149 29.027-16.557 28.794c-5.663 9.518-11.184 19.116-16.99 28.553-11.459 18.959-23.189 37.765-35.672 56.149 9.329-20.163 19.41-39.899 29.763-59.485 5.1-9.835 10.486-19.509 15.727-29.264l16.16-29.02 16.567-28.79c5.659-9.519 11.188-19.112 16.99-28.552C368.11 37.198 379.836 18.388 392.309 0" clip-rule="evenodd" mask="url(#b)"/><path fill="#00D2FF" fill-rule="evenodd" d="M475.484 125.856c-22.373-7.901-44.493-16.509-66.525-25.368-11.04-4.364-21.99-8.982-32.98-13.482l-32.837-13.88-32.702-14.27c-10.852-4.893-21.751-9.651-32.556-14.678-21.659-9.914-43.227-20.082-64.543-30.966 22.375 7.892 44.497 16.498 66.529 25.359 11.041 4.359 21.987 8.989 32.98 13.482l32.835 13.891 32.697 14.278c10.853 4.889 21.751 9.657 32.555 14.681 21.66 9.915 43.229 20.08 64.547 30.953" clip-rule="evenodd"/><g fill="#FFF"><path d="M473.013 249.554h-29.138c-3.258 0-4.165-2.274-3.475-4.849l.031-.113c.711-2.652 2.686-4.508 5.982-4.508h20.272l.182-.682c.092-.341-.065-.605-.633-.605h-23.87l1.127-4.206h28.228c3.221 0 3.919 1.212 3.3 3.523l-1.573 5.871H449.46c-.568 0-.791.266-.893.644-.112.417-.031.682.538.682h25.044l-1.136 4.243zm-30.587-16.365 1.34-5h35.465l-1.34 5h-35.465zm35.609-6.477h-26.864c-4.584 0-5.246-.644-3.977-5.379l1.959-7.311h7.578l-.7 2.614h17.089l.7-2.614h7.616l-3.401 12.69zm-6.517-4.243.457-1.704H455l-.142.53c-.203.758-.05 1.174.86 1.174h15.8zM481.074 241.94l1.654-6.174h35.465l-1.654 6.174h-13.868l-2.091 7.804h-7.729l2.091-7.804h-13.868zm36.46-7.955h-26.561c-4.433 0-5.939-2.159-4.964-5.795l.121-.455c.975-3.637 3.648-5.834 8.08-5.834h17.695l.224-.833c.111-.416.129-.908-.629-.908h-22.961l1.441-5.379h25.766c4.622 0 5.38 2.121 4.528 5.303l-1.858 6.932h-22.885c-.682 0-1.085.228-1.237.796l-.061.227c-.162.606.139.758.821.758h23.87l-1.39 5.188zM541.364 224.78c1.796-6.705 7.05-10.19 13.264-10.19s9.562 3.485 7.765 10.19l-3.715 13.865c-1.797 6.705-7.012 10.19-13.226 10.19s-9.6-3.485-7.803-10.19l3.715-13.865zm3.661 14.054c-.69 2.576.273 3.788 2.092 3.788s3.432-1.212 4.123-3.788l3.816-14.243c.68-2.538-.274-3.787-2.092-3.787s-3.442 1.25-4.122 3.787l-3.817 14.243zm32.281-11.591-1.766 6.591h-4.243l-4.213 15.721h-7.503l8.547-31.896a4.896 4.896 0 0 1 4.736-3.675c1.933 0 3.406 1.288 2.767 3.675l-2.569 9.584h4.244zM579.529 234.061l1.715-6.402h13.262l1.268-4.735c.142-.529-.087-.947-.693-.947h-8.791c-2.273 0-2.716-1.743-2.3-3.295.407-1.515 1.745-3.258 4.056-3.258h11.178c4.282 0 5.411 2.007 4.466 5.53l-2.284 8.523c-3.644 13.598-12.04 18.068-22.1 18.562-1.877.075-3.638 0-3.638 0l1.685-6.289s1.887.089 2.804 0c5.295-.53 9.442-2.007 12.177-7.69l-12.805.001zm32.76-.228-4.213 15.721h-7.503l8.547-31.896a4.896 4.896 0 0 1 4.736-3.675c1.933 0 3.406 1.288 2.767 3.675l-2.569 9.584h4.244l-1.766 6.591h-4.243zM623.329 224.856c1.787-6.667 7.185-10.265 13.513-10.265 6.327 0 9.844 3.561 8.047 10.265l-3.674 13.713c-1.796 6.705-7.222 10.266-13.511 10.266-6.328 0-9.845-3.561-8.049-10.266l3.674-13.713zm3.787 13.865c-.69 2.575.367 3.863 2.224 3.863 1.857 0 3.641-1.288 4.331-3.863l3.756-14.017c.68-2.538-.394-3.901-2.26-3.863-1.867.037-3.624 1.364-4.294 3.863l-3.757 14.017zm15.474 10.833 8.526-31.82c.66-2.462 2.786-3.751 4.793-3.751 2.008 0 3.444 1.288 2.784 3.751l-8.526 31.82h-7.577zM694.102 242.395l-1.716 6.402h-35.464l1.715-6.402h35.465zm-.377-5.948h-26.106c-4.585 0-5.109-1.439-3.931-5.833l4.273-15.948h7.768l-1.381 5.152h16.103l1.38-5.152h7.73l-5.836 21.781zm-6.085-6.137 1.228-4.583h-16.103l-.924 3.447c-.203.758-.039 1.136.87 1.136h14.929z"/></g></svg>